<svg xmlns="http://www.w3.org/2000/svg" width="758.706" height="756.755" viewBox="0 0 778 776">
  <defs>
    <style>
      .cls-1 {
        fill: #ee5a35;
        fill-rule: evenodd;
      }
    </style>
  </defs>
  <path id="Shape_316_1" data-name="Shape 316 1" class="cls-1" d="M387.609,8c14.041,3.028,24.463,25.684,29.427,37.7l11.035,0.919c7.144-10.062,20.088-29.666,34.946-31.263,12.979,9.819,12.1,30.484,22.07,43.217l9.2,1.839c7.616-8.576,23.75-22.774,37.7-23.907l4.6,1.839c5.731,11.8,5.282,30.008,9.2,44.137l7.356,4.6c15.882-4.113,28.743-19.475,46.9-14.712,5.565,11.034,2.166,30.274,1.839,46.9l6.437,5.517c15.57-1.615,33.65-12.538,46.9-6.437,9.884,12.785-6.173,34.411-4.6,48.735q2.3,2.757,4.6,5.517c12.927,2.335,32.644-2.618,45.981.919l3.678,8.276c-4.756,17.071-20.778,31.335-11.955,47.814,15.093,0.744,36.188,3.35,45.061,11.035-0.55,25.042-25.146,27.852-21.151,50.573,13.34,5.539,30.667,9.078,41.382,17.47q0.461,1.839.92,3.679c-1.363,14.538-20.732,26.9-30.347,34.021q0.459,5.978.92,11.954c10.2,3.533,32.21,14.65,35.864,24.827q0.461,2.758.92,5.517c-9.472,11.177-24.952,17.984-37.7,25.746v11.035l30.347,27.585q-0.459,5.057-.92,10.115l-41.382,17.47q-1.379,4.6-2.759,9.195c34.206,37.851,34.09,43.426-22.07,52.413l-3.679,9.2,16.553,40.458c-2.7,3.85-3.186,5.626-8.276,7.356H655.215q-2.759,3.219-5.518,6.437c2.615,14.665,10.852,29.359,8.277,45.056l-5.518,4.6-43.221-9.2-6.438,5.518q0.461,20.687.92,41.378c-5.987,19.294-38.431-4.37-48.739-8.276l-9.2,4.6c-3.831,16.059-1.521,38.88-14.714,45.975-18.593-2.555-23.359-20.868-41.383-23.907l-6.437,2.758c-4.279,11.959-8.453,37.722-21.151,41.378-12.568-.616-26.774-20.662-34.026-30.343l-11.035.919C412.265,736.1,402.8,758.069,392.207,762l-10.116-.92c-5.508-9.263-13.88-30.541-23.91-34.941-22.575-3.919-21.263,32.215-46.9,28.5l-17.473-41.378c-4.994-.972-7.232-2.411-11.035,0l-32.186,22.068c-6.116-.583-7.382-2.045-11.036-4.6q-3.217-20.688-6.437-41.378c-4.611-2.522-8.178-5.328-12.874-2.759-13.9,3.425-21.9,13.251-37.705,14.712l-6.437-4.6q-0.459-22.527-.919-45.056l-6.438-5.518c-12.984,4.08-30.276,10.789-45.061,8.276q-2.3-3.678-4.6-7.356,4.138-21.147,8.277-42.3l-5.518-6.436-43.221.919-4.6-5.517c0.072-17.661,10.6-29.819,16.553-43.217l-5.518-8.275-41.382-8.276L40,530.283c0.224-15.413,14.926-31.834,23.91-39.539L61.147,479.71,20.684,464.078l-1.839-10.115,31.267-29.424-1.839-11.034c-11.563-5.548-32.762-14.513-36.784-27.585,4.249-13.484,25.836-22.593,37.7-28.5V346.38C3.74,312.9,15.357,310.047,61.147,291.21L63.906,281.1C55.285,272.89,40.846,257.25,40,242.476c7.517-11.818,31.1-9.659,45.981-13.793l4.6-9.195c-6.485-8.551-20.16-31.592-14.714-44.137,11.052-8.238,35.855,2.177,46.9-3.678l5.517-7.356c-3.293-12.176-14.146-37.1-4.6-45.976,10.066-7.063,32.8,4.822,45.981,6.437l5.518-4.6c4.054-18.928-5.5-39.116,6.437-49.653,18.4,0.52,27.721,12.37,43.222,16.551l8.276-5.517c0.7-15.925,3.077-36.7,11.955-45.056,15.733,0.553,30.171,15.543,39.543,23.907l11.036-3.678c2.111-11.491,8.927-36.747,19.311-40.458,12.144-2.849,29.32,22.071,34.946,30.344L360.94,45.7C367.361,32.579,375.623,15.85,387.609,8Zm-4.6,68.963c-24.2,13.309-15.684,52.173,12.874,42.3C419.164,111.211,413.727,74.91,383.011,76.963Zm282.32,330.1c0.283-19.408,1.477-39.2-1.839-57.009-14.592-6.8-52.009-19.344-56.1-35.861-7.053-28.5,28.069-44.039,22.071-67.125q-14.253-20.228-28.508-40.458c-33.4-41.769-94.817-87.052-161.851-92.871-39.468,52.205-60.764,51.878-100.238,0-51.677,3.5-132.989,50.993-153.575,85.515L501.64,201.1c18.5,4.581,32.361,13.714,45.061,23.907,26.878,21.571,48.707,71.611,23.91,112.18-10.177,16.651-25.713,25.624-40.463,37.7l0.92,0.92c10.559,8.6,19.662,20.131,26.668,32.183,12.921,22.222,8.768,56.145,44.142,56.09,11.3-.017,20.012-5.39,24.829-11.954,7.82-10.655,2.451-33.322,10.116-45.056h28.508ZM109.886,275.578c-20.468,10.968-20.692,48.405,8.277,43.217C144.734,314.037,143.265,273.354,109.886,275.578Zm547.168,0c-21.046,11.162-20.955,48.529,8.277,43.217C691.389,314.06,689.627,273.465,657.054,275.578ZM209.2,465V284.773H162.3c26.5,64.327-31.379,34.89-47.82,68.044-11.676,32.659,1.274,87.8,9.2,112.181H209.2ZM331.512,284.773v50.573c39.361,0.864,122.79,10.836,129.665-21.148C469.7,274.563,368.137,284,331.512,284.773Zm0,129.651V465l63.453,0.919q0.461,41.834.92,83.676l-0.92.919H224.838c-12.724,0-50.676-4.885-57.016,2.759l20.231,22.988c83.3-23.21,65.515-1.427,82.765,59.768,59.285,28.382,180.157,40.975,237.26-.92,4.86-63.556,16.511-78.878,81.845-58.848q10.573-12.412,21.151-24.827C577.113,543.1,502.08,562.14,478.65,545c-29.907-21.884-21.079-84.233-43.222-114.019C418.578,408.308,370.751,414.215,331.512,414.424ZM216.561,596.488c-25.611,11.335-21.961,51.384,9.2,43.217C249.281,633.539,244.96,595.515,216.561,596.488Zm337.5,0c-27.946,13.679-17.015,54.375,12.875,42.3C588.7,629.989,580.66,595.514,554.058,596.488Z"/>
</svg>
