<svg xmlns="http://www.w3.org/2000/svg" width="575.368" height="589.996" viewBox="0 0 590 605">
  <defs>
    <style>.cls-1 {
  fill: #262523;
  fill-rule: evenodd;
}

</style>
  </defs>
  <path id="rust_logo_2" data-name="rust logo 2" class="cls-1" d="M289.835,25.5c4.739-.17,6.894.512,9.5,2.11l15.3,25.32,7.385,0.527c5.413-7.554,17.023-25.2,29.011-22.155,3.855,5.788,9.166,27.734,13.714,30.6,2.144,1.307,5.315,2.213,6.857,1.055,10.046-4.246,15.251-16.462,28.484-16.88,10.269,5.472,5.621,24.037,10.549,34.816l5.8,3.165c6.379-3.179,31.364-18.933,36.4-8.44,4.52,9.427-3.626,26.093,1.055,33.761l3.692,2.637,30.594-6.857c12.7,7.908,1.229,23.793,0,37.98q2.637,2.637,5.275,5.275c9.668-2.733,28.274-2.569,34.285,1.583,3.219,11.7-13.161,29.414-10.549,34.288l3.165,6.33c9.1,0.008,31.664,1.733,33.758,8.968,2.072,7.158-14.624,25.12-17.934,30.068q1.055,3.428,2.11,6.857c7.778,3.205,27.016,6.336,30.593,13.716,4.785,8.879-17.641,22.753-22.154,28.485l0.528,7.385c6.641,3.109,34.156,15.72,26.373,26.376l-26.373,16.352-0.528,7.385c7.554,5.413,25.2,17.024,22.154,29.013-5.787,3.856-27.732,9.167-30.593,13.716-1.362,2.042-2.208,5.33-1.055,6.857,4.246,10.046,16.461,15.252,16.879,28.486-5.471,10.269-24.036,5.622-34.813,10.55l-3.165,5.8c3.179,6.38,18.932,31.367,8.439,36.4-9.426,4.52-26.091-3.627-33.758,1.055l-2.637,3.692q3.427,15.3,6.857,30.6c-7.908,12.7-23.791,1.228-37.978,0l-5.275,5.275c2.734,9.669,2.57,28.276-1.582,34.288-11.7,3.219-29.412-13.162-34.286-10.55l-6.33,3.165c-0.007,9.1-1.733,31.666-8.967,33.76-7.157,2.072-25.118-14.625-30.066-17.935l-6.857,2.11c-3.2,7.778-6.335,27.018-13.714,30.6-8.879,4.785-22.752-17.642-28.483-22.155l-7.385.528-15.824,26.375c-16.233,4.81-18.7-17.894-26.9-26.375l-7.385-.528c-5.413,7.554-17.023,25.2-29.011,22.155-3.855-5.787-9.166-27.734-13.714-30.6-2.042-1.362-5.331-2.208-6.857-1.055-10.046,4.246-15.251,16.462-28.484,16.88-10.269-5.471-5.621-24.037-10.549-34.815l-5.8-3.165c-6.366,3.176-31.36,18.941-36.4,8.44-4.52-9.428,3.626-26.094-1.055-33.761l-3.692-2.637-30.594,6.857c-12.7-7.908-1.229-23.793,0-37.98l-5.275-5.275c-9.668,2.733-28.274,2.569-34.286-1.583-3.219-11.7,13.161-29.414,10.55-34.288l-3.165-6.33c-9.062-.008-31.67-1.754-33.758-8.968-2.072-7.158,14.624-25.12,17.934-30.068l-2.11-6.857c-7.778-3.206-27.016-6.336-30.593-13.716-4.785-8.879,17.641-22.753,22.154-28.485l-0.527-7.385c-6.642-3.109-34.156-15.72-26.374-26.376l26.374-16.352,0.527-7.386c-7.553-5.413-25.2-17.024-22.154-29.013,5.787-3.855,27.732-9.166,30.593-13.715l2.11-5.8c-5.474-8.582-17.579-17.1-17.934-29.541,5.458-10.245,24.064-5.635,34.813-10.55l3.165-5.8c-3.179-6.379-18.932-31.366-8.439-36.4,9.427-4.52,26.091,3.627,33.758-1.055l2.637-3.692-6.857-30.6c7.908-12.7,23.791-1.229,37.978,0l5.275-5.275c-2.734-9.669-2.57-28.276,1.582-34.288C147.467,69.243,165.3,85.573,170.1,83l6.33-3.165c0.007-9.1,1.733-31.666,8.967-33.76C192.553,44,210.514,60.7,215.462,64.009l6.857-2.11c3.205-7.779,6.335-27.018,13.714-30.6,8.879-4.785,22.752,17.642,28.483,22.155l7.385-.527C276.176,43.912,282.464,31.743,289.835,25.5Zm0,50.641c-4.474,2.229-8.627,3.756-11.077,7.913-6.358,10.789,3.026,27.287,16.879,24.266C314.493,104.208,313.037,75.122,289.835,76.142Zm209.407,247.4a338.138,338.138,0,0,0-1.055-43.256c-10.016-3-40-17.728-42.2-27.43-2.6-11.467,14.173-35.934,18.462-44.311-2.265-8.6-9.459-16.122-14.242-22.683-22.067-30.262-48.659-51.245-84.4-68.048-4.4-2.069-39.867-16.49-44.835-14.243l-27.956,28.486c-3.354,1.35-7.062,4.293-12.659,3.165-9.1-1.835-29.948-24.369-35.341-31.651C208.188,117.244,166.1,132.98,140.56,167.4H310.934c33.915,0,67.716-1.805,88.615,10.55,48.557,28.7,49.8,93.592-1.054,120.8l1.054,1.583c11,5.528,20.4,23.229,24.792,35.343,3.305,9.123,3.621,18.924,10.549,24.265,7.545,5.817,22.47,7.968,31.121,1.583,14.232-10.5,4.047-24.456,11.077-37.981h22.154Zm-410.9-99.171c-5.538,2.087-10.193,2.436-13.187,6.857-7.286,10.762,1.178,27.876,14.769,25.848C111.266,253.893,108.144,229.46,88.341,224.372Zm408.791,0c-5.308,2-9.656,2.223-12.659,6.33-7.566,10.346.019,28.5,14.241,26.375C520.241,253.869,516.976,229.469,497.132,224.372ZM158.5,366.271V231.757l-34.814.527c2.574,5.181,8.438,11.606,6.33,20.573-2.345,9.975-31.981,24.158-42.2,27.43a248.437,248.437,0,0,0,6.857,85.984H158.5Zm91.78-134.514v37.98c26.909,0.365,102.239,7.53,96.527-21.1C342.015,224.645,280.487,231.4,250.275,231.757Zm-0.528,97.061q0.264,18.725.528,37.453l46.417,0.528,1.583,1.055c0.108,12.921,2.789,54.287-1.055,62.773l-169.846.528,1.582,1.582c2.413,5.59,9.008,12.813,13.714,16.353,14.96-.753,42.714-12.36,52.22-0.527,8.339,10.379,3.911,31.652,9.5,44.838,4.456,5.9,17.717,7.91,25.318,10.55,33.951,11.792,85.9,12.51,121.319,1.583,8.98-2.771,25.52-5.283,30.593-12.133,5.255-13.2,1.214-34.606,9.5-44.838,9.529-11.776,37.674-.331,52.747.527l14.769-17.935v-0.528c-24.146-.071-85.457,5.338-99.164-4.747-22.168-16.31-16.369-64.786-33.231-86.512C314.281,323.973,276.674,328.693,249.747,328.818Zm-85.45,136.1c-5.035,2.392-9.51,3.765-12.132,8.441-6.543,11.664,4.189,26.9,17.934,23.738C188.271,492.916,185.858,464.294,164.3,464.915Zm252.659,0c-4.279,2.035-8.577,3.156-11.077,6.858-7.492,11.1,1.515,28.845,16.879,25.321C440.91,492.929,438.657,464.291,416.956,464.915Z"></path>
</svg>
